<mxfile host="app.diagrams.net" modified="2022-04-12T08:44:29.314Z" agent="5.0 (Windows NT 10.0; Win64; x64) AppleWebKit/537.36 (KHTML, like Gecko) Chrome/100.0.4896.88 Safari/537.36" etag="40c8SoFGHvm8PFM5Kxq5" version="17.4.3" type="github">
  <diagram id="C5RBs43oDa-KdzZeNtuy" name="Page-1">
    <mxGraphModel dx="1422" dy="762" grid="1" gridSize="10" guides="1" tooltips="1" connect="1" arrows="1" fold="1" page="1" pageScale="1" pageWidth="1169" pageHeight="827" math="0" shadow="0">
      <root>
        <mxCell id="WIyWlLk6GJQsqaUBKTNV-0" />
        <mxCell id="WIyWlLk6GJQsqaUBKTNV-1" parent="WIyWlLk6GJQsqaUBKTNV-0" />
        <mxCell id="KLCIIgSsqngVHCWPASFz-40" style="edgeStyle=orthogonalEdgeStyle;rounded=0;orthogonalLoop=1;jettySize=auto;html=1;fontSize=42;strokeWidth=3;fillColor=#e6d0de;gradientColor=#d5739d;strokeColor=#996185;shadow=1;startArrow=none;" edge="1" parent="WIyWlLk6GJQsqaUBKTNV-1">
          <mxGeometry relative="1" as="geometry">
            <mxPoint x="680" y="225" as="targetPoint" />
            <mxPoint x="710.7938540862037" y="225" as="sourcePoint" />
            <Array as="points">
              <mxPoint x="710" y="225" />
            </Array>
          </mxGeometry>
        </mxCell>
        <mxCell id="KLCIIgSsqngVHCWPASFz-34" value="&lt;h1&gt;&lt;font style=&quot;font-size: 42px&quot;&gt;Workstation&lt;/font&gt;&lt;/h1&gt;" style="text;html=1;spacing=5;spacingTop=-20;whiteSpace=wrap;overflow=hidden;rounded=1;glass=0;sketch=0;fontSize=16;align=center;fillColor=#e6d0de;gradientColor=#d5739d;strokeColor=#996185;shadow=1;" vertex="1" parent="WIyWlLk6GJQsqaUBKTNV-1">
          <mxGeometry x="780" y="190" width="260" height="70" as="geometry" />
        </mxCell>
        <mxCell id="KLCIIgSsqngVHCWPASFz-42" style="edgeStyle=orthogonalEdgeStyle;rounded=0;orthogonalLoop=1;jettySize=auto;html=1;fontSize=42;fillColor=#f8cecc;gradientColor=#ea6b66;strokeColor=#b85450;strokeWidth=3;shadow=1;" edge="1" parent="WIyWlLk6GJQsqaUBKTNV-1" source="KLCIIgSsqngVHCWPASFz-36">
          <mxGeometry relative="1" as="geometry">
            <mxPoint x="420" y="180" as="targetPoint" />
            <Array as="points">
              <mxPoint x="420" y="60" />
            </Array>
          </mxGeometry>
        </mxCell>
        <mxCell id="KLCIIgSsqngVHCWPASFz-36" value="&lt;h1&gt;&lt;font style=&quot;font-size: 42px&quot;&gt;Root Server&lt;/font&gt;&lt;/h1&gt;" style="text;html=1;strokeColor=#b85450;fillColor=#f8cecc;spacing=5;spacingTop=-20;whiteSpace=wrap;overflow=hidden;rounded=1;glass=0;sketch=0;fontSize=16;align=center;gradientColor=#ea6b66;shadow=1;" vertex="1" parent="WIyWlLk6GJQsqaUBKTNV-1">
          <mxGeometry x="10" y="10" width="270" height="70" as="geometry" />
        </mxCell>
        <mxCell id="KLCIIgSsqngVHCWPASFz-44" style="edgeStyle=orthogonalEdgeStyle;rounded=0;orthogonalLoop=1;jettySize=auto;html=1;exitX=1;exitY=0.75;exitDx=0;exitDy=0;fontSize=42;fillColor=#d5e8d4;gradientColor=#97d077;strokeColor=#82b366;strokeWidth=3;shadow=1;sketch=0;" edge="1" parent="WIyWlLk6GJQsqaUBKTNV-1" source="KLCIIgSsqngVHCWPASFz-37">
          <mxGeometry relative="1" as="geometry">
            <mxPoint x="390" y="243" as="targetPoint" />
          </mxGeometry>
        </mxCell>
        <mxCell id="KLCIIgSsqngVHCWPASFz-37" value="&lt;h1&gt;&lt;font style=&quot;font-size: 42px&quot;&gt;TLD Server&lt;/font&gt;&lt;/h1&gt;" style="text;html=1;strokeColor=#82b366;fillColor=#d5e8d4;spacing=5;spacingTop=-20;whiteSpace=wrap;overflow=hidden;rounded=1;glass=0;sketch=0;fontSize=16;align=center;gradientColor=#97d077;shadow=1;" vertex="1" parent="WIyWlLk6GJQsqaUBKTNV-1">
          <mxGeometry x="10" y="190" width="270" height="70" as="geometry" />
        </mxCell>
        <mxCell id="KLCIIgSsqngVHCWPASFz-47" style="edgeStyle=orthogonalEdgeStyle;rounded=0;orthogonalLoop=1;jettySize=auto;html=1;exitX=1;exitY=0.75;exitDx=0;exitDy=0;fontSize=42;fillColor=#dae8fc;gradientColor=#7ea6e0;strokeColor=#6c8ebf;strokeWidth=3;shadow=1;" edge="1" parent="WIyWlLk6GJQsqaUBKTNV-1" source="KLCIIgSsqngVHCWPASFz-38">
          <mxGeometry relative="1" as="geometry">
            <mxPoint x="570" y="270" as="targetPoint" />
            <Array as="points">
              <mxPoint x="570" y="423" />
            </Array>
          </mxGeometry>
        </mxCell>
        <mxCell id="KLCIIgSsqngVHCWPASFz-38" value="&lt;h1&gt;&lt;span style=&quot;font-size: 42px&quot;&gt;ANS&lt;/span&gt;&lt;/h1&gt;" style="text;html=1;strokeColor=#6c8ebf;fillColor=#dae8fc;spacing=5;spacingTop=-20;whiteSpace=wrap;overflow=hidden;rounded=1;glass=0;sketch=0;fontSize=16;align=center;gradientColor=#7ea6e0;shadow=1;" vertex="1" parent="WIyWlLk6GJQsqaUBKTNV-1">
          <mxGeometry x="10" y="370" width="270" height="70" as="geometry" />
        </mxCell>
        <mxCell id="KLCIIgSsqngVHCWPASFz-41" style="edgeStyle=orthogonalEdgeStyle;rounded=0;orthogonalLoop=1;jettySize=auto;html=1;exitX=0.25;exitY=0;exitDx=0;exitDy=0;fontSize=42;fillColor=#f5f5f5;gradientColor=#b3b3b3;strokeColor=#666666;strokeWidth=3;" edge="1" parent="WIyWlLk6GJQsqaUBKTNV-1" source="KLCIIgSsqngVHCWPASFz-39">
          <mxGeometry relative="1" as="geometry">
            <mxPoint x="290" y="40" as="targetPoint" />
            <Array as="points">
              <mxPoint x="468" y="40" />
              <mxPoint x="340" y="40" />
            </Array>
          </mxGeometry>
        </mxCell>
        <mxCell id="KLCIIgSsqngVHCWPASFz-43" style="edgeStyle=orthogonalEdgeStyle;rounded=0;orthogonalLoop=1;jettySize=auto;html=1;exitX=0;exitY=0.25;exitDx=0;exitDy=0;fontSize=42;fillColor=#f5f5f5;gradientColor=#b3b3b3;strokeColor=#666666;strokeWidth=3;shadow=1;" edge="1" parent="WIyWlLk6GJQsqaUBKTNV-1" source="KLCIIgSsqngVHCWPASFz-39">
          <mxGeometry relative="1" as="geometry">
            <mxPoint x="290" y="208" as="targetPoint" />
          </mxGeometry>
        </mxCell>
        <mxCell id="KLCIIgSsqngVHCWPASFz-45" style="edgeStyle=orthogonalEdgeStyle;rounded=0;orthogonalLoop=1;jettySize=auto;html=1;exitX=0;exitY=1;exitDx=0;exitDy=0;entryX=1;entryY=0.25;entryDx=0;entryDy=0;fontSize=42;fillColor=#f5f5f5;gradientColor=#b3b3b3;strokeColor=#666666;strokeWidth=3;shadow=1;" edge="1" parent="WIyWlLk6GJQsqaUBKTNV-1" source="KLCIIgSsqngVHCWPASFz-39" target="KLCIIgSsqngVHCWPASFz-38">
          <mxGeometry relative="1" as="geometry" />
        </mxCell>
        <mxCell id="KLCIIgSsqngVHCWPASFz-54" style="edgeStyle=orthogonalEdgeStyle;rounded=0;orthogonalLoop=1;jettySize=auto;html=1;exitX=0.75;exitY=1;exitDx=0;exitDy=0;fontSize=42;strokeWidth=3;fillColor=#dae8fc;gradientColor=#7ea6e0;strokeColor=#6c8ebf;shadow=1;" edge="1" parent="WIyWlLk6GJQsqaUBKTNV-1" source="KLCIIgSsqngVHCWPASFz-39">
          <mxGeometry relative="1" as="geometry">
            <mxPoint x="918" y="270" as="targetPoint" />
            <Array as="points">
              <mxPoint x="603" y="420" />
              <mxPoint x="918" y="420" />
            </Array>
          </mxGeometry>
        </mxCell>
        <mxCell id="KLCIIgSsqngVHCWPASFz-39" value="&lt;h1&gt;&lt;span style=&quot;font-size: 42px&quot;&gt;Resolver&lt;/span&gt;&lt;/h1&gt;" style="text;html=1;strokeColor=#666666;fillColor=#f5f5f5;spacing=5;spacingTop=-20;whiteSpace=wrap;overflow=hidden;rounded=1;glass=0;sketch=0;fontSize=16;align=center;gradientColor=#b3b3b3;shadow=1;" vertex="1" parent="WIyWlLk6GJQsqaUBKTNV-1">
          <mxGeometry x="400" y="190" width="270" height="70" as="geometry" />
        </mxCell>
        <mxCell id="KLCIIgSsqngVHCWPASFz-59" value="" style="edgeStyle=orthogonalEdgeStyle;rounded=0;orthogonalLoop=1;jettySize=auto;html=1;fontSize=42;strokeWidth=3;fillColor=#e6d0de;gradientColor=#d5739d;strokeColor=#996185;shadow=1;endArrow=none;" edge="1" parent="WIyWlLk6GJQsqaUBKTNV-1" source="KLCIIgSsqngVHCWPASFz-34">
          <mxGeometry relative="1" as="geometry">
            <mxPoint x="759.2061459137963" y="225" as="targetPoint" />
            <mxPoint x="780" y="225" as="sourcePoint" />
            <Array as="points">
              <mxPoint x="710" y="225" />
            </Array>
          </mxGeometry>
        </mxCell>
        <mxCell id="KLCIIgSsqngVHCWPASFz-69" value="1. Web-Browser or OS cannot locate IP address for Yahoo.com within memory cache." style="rounded=0;whiteSpace=wrap;html=1;shadow=1;glass=0;labelBackgroundColor=none;sketch=0;fontSize=18;strokeWidth=2;fontStyle=0;" vertex="1" parent="WIyWlLk6GJQsqaUBKTNV-1">
          <mxGeometry x="780" y="80" width="260" height="100" as="geometry" />
        </mxCell>
        <mxCell id="KLCIIgSsqngVHCWPASFz-70" value="2. Resolver Server receives query and checks memory cache. If IP address isn&#39;t available, Resolver escalates query to Root Server." style="rounded=0;whiteSpace=wrap;html=1;shadow=1;glass=0;labelBackgroundColor=none;sketch=0;fontSize=18;strokeWidth=2;fontStyle=0;" vertex="1" parent="WIyWlLk6GJQsqaUBKTNV-1">
          <mxGeometry x="480" y="20" width="190" height="160" as="geometry" />
        </mxCell>
        <mxCell id="KLCIIgSsqngVHCWPASFz-71" value="3. Root Server cannot resolve an IP address refers Resolver Server to TLD Server.&amp;nbsp;" style="rounded=0;whiteSpace=wrap;html=1;shadow=1;glass=0;labelBackgroundColor=none;sketch=0;fontSize=18;strokeWidth=2;fontStyle=0;" vertex="1" parent="WIyWlLk6GJQsqaUBKTNV-1">
          <mxGeometry x="15" y="90" width="385" height="90" as="geometry" />
        </mxCell>
        <mxCell id="KLCIIgSsqngVHCWPASFz-73" value="4. TLD Server cannot resolve an IP address, refers Resolver to ANS Server." style="rounded=0;whiteSpace=wrap;html=1;shadow=1;glass=0;labelBackgroundColor=none;sketch=0;fontSize=18;strokeWidth=2;fontStyle=0;" vertex="1" parent="WIyWlLk6GJQsqaUBKTNV-1">
          <mxGeometry x="15" y="270" width="375" height="90" as="geometry" />
        </mxCell>
        <mxCell id="KLCIIgSsqngVHCWPASFz-74" value="5. ANS knows everything about Yahoo.com domain. After the initial query is received - ANS sends the IP address to the Resolver Server and saves the Yahoo.com IP address in the memory cache for future queries. Yahoo.com domain IP is now stored." style="rounded=0;whiteSpace=wrap;html=1;shadow=1;glass=0;labelBackgroundColor=none;sketch=0;fontSize=18;strokeWidth=2;fontStyle=0;" vertex="1" parent="WIyWlLk6GJQsqaUBKTNV-1">
          <mxGeometry x="15" y="450" width="1125" height="70" as="geometry" />
        </mxCell>
      </root>
    </mxGraphModel>
  </diagram>
</mxfile>
